<svg aria-hidden="true" style="position: absolute; width: 0; height: 0; overflow: hidden;" version="1.1" xmlns="http://www.w3.org/2000/svg" xmlns:xlink="http://www.w3.org/1999/xlink">
<defs>
<symbol id="icon-close" viewBox="0 0 32 32">
<path d="M25.333 8.547l-1.88-1.88-7.453 7.453-7.453-7.453-1.88 1.88 7.453 7.453-7.453 7.453 1.88 1.88 7.453-7.453 7.453 7.453 1.88-1.88-7.453-7.453 7.453-7.453z"></path>
</symbol>
<symbol id="icon-download" viewBox="0 0 32 32">
<path d="M25.8 13.387c-0.907-4.6-4.947-8.053-9.8-8.053-3.853 0-7.2 2.187-8.867 5.387-4.013 0.427-7.133 3.827-7.133 7.947 0 4.413 3.587 8 8 8h17.333c3.68 0 6.667-2.987 6.667-6.667 0-3.52-2.733-6.373-6.2-6.613zM22.667 17.333l-6.667 6.667-6.667-6.667h4v-5.333h5.333v5.333h4z"></path>
</symbol>
<symbol id="icon-comment" viewBox="0 0 32 32">
<path d="M26.667 2.667h-21.333c-1.467 0-2.653 1.2-2.653 2.667l-0.013 24 5.333-5.333h18.667c1.467 0 2.667-1.2 2.667-2.667v-16c0-1.467-1.2-2.667-2.667-2.667zM12 14.667h-2.667v-2.667h2.667v2.667zM17.333 14.667h-2.667v-2.667h2.667v2.667zM22.667 14.667h-2.667v-2.667h2.667v2.667z"></path>
</symbol>
<symbol id="icon-like" viewBox="0 0 32 32">
<path d="M16 28.467l-1.933-1.76c-6.867-6.227-11.4-10.333-11.4-15.373 0-4.107 3.227-7.333 7.333-7.333 2.32 0 4.547 1.080 6 2.787 1.453-1.707 3.68-2.787 6-2.787 4.107 0 7.333 3.227 7.333 7.333 0 5.040-4.533 9.147-11.4 15.387l-1.933 1.747z"></path>
</symbol>
<symbol id="icon-view" viewBox="0 0 32 32">
<path d="M16 6c-6.667 0-12.36 4.147-14.667 10 2.307 5.853 8 10 14.667 10s12.36-4.147 14.667-10c-2.307-5.853-8-10-14.667-10zM16 22.667c-3.68 0-6.667-2.987-6.667-6.667s2.987-6.667 6.667-6.667c3.68 0 6.667 2.987 6.667 6.667s-2.987 6.667-6.667 6.667zM16 12c-2.213 0-4 1.787-4 4s1.787 4 4 4c2.213 0 4-1.787 4-4s-1.787-4-4-4z"></path>
</symbol>
<symbol id="icon-logo" viewBox="0 0 32 32">
<path fill="currentColor" style="fill: var(--color1, currentColor)" d="M18.119 16.53v0zM18.119 16.53v0zM19.232 16.742c0-0.318 0.053-0.742 0.053-1.219-0.053 0.318-0.053 0.742-0.053 1.219z"></path>
<path fill="currentColor" style="fill: var(--color1, currentColor)" d="M18.119 16.53v0.318c-0.053-0.106-0.053-0.212 0-0.318z"></path>
<path fill="currentColor" style="fill: var(--color1, currentColor)" d="M18.119 16.53v0zM18.119 16.53v0zM18.119 16.53v0zM18.119 16.53v0zM18.119 16.53v0zM18.119 16.53v0zM18.119 16.53v0zM18.119 16.53v0zM18.119 16.53v0zM19.285 15.417v0zM18.119 16.53v0zM18.119 16.53v0zM18.119 16.53v0zM18.119 16.53v0zM18.119 16.53v0zM18.119 16.53v0zM18.119 16.53v0zM18.119 16.53v0zM15.258 15.152c-0.371 0.159-0.954 0.265-1.377 0.212-0.212 0-0.424-0.053-0.583-0.053-0.159-0.053-0.318-0.106-0.424-0.159-0.106-0.106-0.159-0.265-0.106-0.371 0.106-0.106 0.265-0.159 0.371-0.106 0.053 0 0.106 0.053 0.265 0.106 0.159 0 0.318 0.053 0.53 0.053 0.371 0 0.848-0.053 1.113-0.159 0.159-0.053 0.318 0 0.371 0.159 0.053 0.053 0 0.265-0.159 0.318z"></path>
<path fill="currentColor" style="fill: var(--color1, currentColor)" d="M31.841 29.457l-0.053-0.106-4.874-4.927c2.066-2.543 3.285-5.828 3.285-9.325 0-8.212-6.675-14.94-14.94-14.94-8.212 0-14.887 6.728-14.887 14.94s6.676 14.94 14.94 14.94c3.497 0 6.728-1.219 9.272-3.232l4.768 4.768c0.212 0.212 0.477 0.318 0.742 0.318 0.106 0 0.212 0 0.265-0.053 0.318-0.106 0.636-0.265 1.007-0.636s0.53-0.636 0.636-0.954c0-0.371-0.106-0.636-0.159-0.795zM6.464 23.364c-0.159 0.265-0.265 0.583-0.371 0.901-2.384-2.331-3.815-5.616-3.815-9.166 0-7.152 5.828-12.98 12.98-12.98s12.98 5.828 12.98 12.98c0 2.702-0.795 5.192-2.225 7.258-0.636-0.636-1.483-0.901-2.331-1.113-0.424-1.007-0.53-2.119-0.795-3.868l-0.106-1.007c-0.265-2.172-0.742-4.609-1.272-6.57-0.318-1.166-0.636-2.172-0.954-2.967-0.371-1.007-0.742-1.642-1.166-2.066-0.954-0.901-2.013-1.377-3.073-1.483-0.477-0.053-0.848 0-1.060 0.053-0.106 0-0.159 0-0.265 0.053h-0.371c-0.371 0-1.113-0.053-1.907 0.265-1.166 0.424-2.119 1.377-2.967 2.808-1.060 1.854-1.113 3.921-1.060 5.563 0 0.901 0.106 1.748 0.159 2.649v0.212c0.053 0.954 0.159 1.801 0.159 2.649 0 1.589-0.106 2.702-0.265 3.444-0.159 0.583-0.318 0.848-0.477 0.954-0.848 0.265-1.377 0.742-1.801 1.43zM10.172 14.781v-0.212l-0.159-2.543c0-1.007 0-1.854 0.159-2.596 0.106-0.689 0.318-1.325 0.53-1.854 0.053-0.159 0.159-0.265 0.212-0.424 0.636-1.166 1.43-1.907 2.225-2.225 0.159-0.053 0.318-0.106 0.477-0.106 0.106 0 0.212-0.053 0.318-0.053-0.053 0.159-0.159 0.265-0.212 0.424 0 0.053-0.053 0.053-0.053 0.106-0.053 0.106-0.106 0.212-0.159 0.265-0.053 0.106-0.106 0.159-0.106 0.212v0.053c-0.159 0-0.371 0.106-0.477 0.159-0.053 0.053-0.106 0.053-0.159 0.106-0.265 0.159-0.53 0.371-0.742 0.583-0.477 0.424-0.954 0.954-1.272 1.272l-0.053 0.106v0.106c-0.689 3.285-0.265 6.093 0.689 7.735 0.477 0.848 0.954 1.377 1.43 1.695 0.265 0.212 0.477 0.318 0.689 0.424v0.106c0 0.053 0.053 0.159 0.053 0.212 0.053 0.318 0.106 0.689 0.053 1.060-0.053 0.424-0.159 0.742-0.318 0.848-0.106 0.053-0.318 0.212-0.742 0.424-0.212 0.053-0.424 0.159-0.689 0.265-0.053 0-0.159 0.053-0.265 0.106s-0.212 0.053-0.318 0.106c-0.424 0.106-0.848 0.265-1.272 0.371 0-0.053 0-0.106 0.053-0.106 0.212-0.848 0.318-2.119 0.318-3.762-0.106-0.954-0.159-1.854-0.212-2.861zM14.040 6.728c0.583 0.106 1.325 0.265 2.013 0.583 0.954 0.424 1.695 1.007 2.013 1.907 0.318 0.954 0.371 2.384 0.265 3.921-0.053 0.53-0.053 1.113-0.106 1.642v0.106c-0.106 0.053-0.106 0.106-0.212 0.159 0 0.053-0.053 0.053-0.053 0.106l-0.053 0.053c-0.318 0.371-0.901 0.742-1.695 1.060-0.742 0.318-1.589 0.53-2.331 0.742-0.106 0-0.265-0.106-0.477-0.265-0.265-0.212-0.689-0.636-1.113-1.377-0.901-1.589-1.113-4.132-0.583-6.781 0.265-0.318 0.636-0.689 1.060-1.060 0.212-0.212 0.424-0.371 0.583-0.424 0.106-0.053 0.159-0.106 0.212-0.106h0.053c0.159-0.212 0.265-0.212 0.424-0.265zM11.762 24.106c0.053-0.636 0.212-1.325 0.371-1.854 0.053-0.106 0.053-0.212 0.106-0.318 0.106-0.053 0.212-0.053 0.318-0.106 0.159-0.053 0.265-0.106 0.424-0.159 0.424-0.159 0.795-0.371 1.060-0.583 0.477-0.371 0.689-1.060 0.742-1.642 0.053-0.424 0-0.901-0.053-1.272 0-0.106-0.053-0.159-0.053-0.265 0.106 0 0.159-0.053 0.265-0.053 0.583-0.159 1.219-0.371 1.801-0.636 0.424-0.159 0.795-0.371 1.166-0.583 0.106-0.053 0.159-0.106 0.265-0.159v1.219c0 0.318 0.053 0.636 0.053 0.954 0.053 0.583 0.159 1.166 0.265 1.642 0.053 0.212 0.106 0.477 0.212 0.636s0.212 0.371 0.424 0.477c0.053 0.053 0.106 0.053 0.212 0.106s0.212 0.106 0.318 0.106c0 0.106 0.053 0.212 0.053 0.318 0.106 0.53 0.212 1.272 0.265 1.96 0 0.477 0 0.901-0.053 1.219-0.053 0.371-0.159 0.53-0.212 0.583 0 0-0.053 0-0.106 0.053-0.053 0-0.159 0.053-0.265 0.106-0.212 0.053-0.53 0.106-0.901 0.159-0.742 0.106-1.642 0.159-2.596 0.159s-1.854 0-2.596-0.106c-0.371-0.053-0.689-0.106-0.901-0.159-0.106-0.053-0.212-0.053-0.265-0.106-0.053 0-0.053 0-0.053-0.053v-0.053s-0.053-0.053-0.053-0.106c-0.053-0.106-0.053-0.212-0.053-0.424-0.212-0.159-0.212-0.583-0.159-1.060zM19.656 20.503c-0.053-0.106-0.106-0.265-0.159-0.477-0.106-0.371-0.159-0.901-0.212-1.483-0.053-0.53-0.053-1.113-0.053-1.642v-0.212c0-0.477 0.053-0.901 0.053-1.219v-0.53c0.053-0.583 0.106-1.166 0.106-1.801 0.106-1.377 0.106-3.126-0.318-4.344-0.371-1.060-1.325-1.96-2.649-2.543-0.636-0.265-1.272-0.477-1.801-0.583 0.159-0.318 0.318-0.689 0.53-0.954 0.053 0 0.106 0 0.159-0.053 0.159 0 0.477-0.053 0.795 0 0.848 0.106 1.589 0.477 2.331 1.166 0.159 0.106 0.477 0.53 0.848 1.536 0.318 0.742 0.583 1.695 0.901 2.808 0.477 1.907 0.954 4.291 1.219 6.411 0.053 0.318 0.106 0.636 0.106 1.007 0.159 1.377 0.318 2.49 0.636 3.497h-0.159c-0.371-0.053-0.689-0.053-1.060-0.106-0.583-0.159-0.954-0.318-1.272-0.477zM15.258 28.132c-3.020 0-5.828-1.060-8.053-2.808 0.106-0.424 0.265-0.901 0.424-1.272 0.212-0.424 0.477-0.636 0.901-0.742 0.477-0.159 1.007-0.265 1.536-0.424h0.053c0.265-0.053 0.477-0.106 0.742-0.212-0.106 0.424-0.159 0.901-0.212 1.377-0.053 0.583-0.053 1.060-0.053 1.483 0 0.265 0.053 0.477 0.106 0.636 0.106 0.265 0.212 0.477 0.424 0.636 0.265 0.212 0.583 0.318 0.848 0.371s0.636 0.106 1.060 0.159c0.636 0.053 1.483 0.106 2.331 0.106h0.371c1.007 0 1.96-0.053 2.702-0.159 0.424-0.053 0.795-0.106 1.060-0.212 0.371-0.106 0.636-0.212 0.848-0.371 0.318-0.265 0.477-0.689 0.583-1.272 0.053-0.424 0.053-0.901 0.053-1.483-0.053-0.53-0.106-1.113-0.212-1.642 0.318 0.053 0.689 0.106 1.060 0.106 0.265 0 0.53 0.053 0.742 0.106 1.166 0.159 2.066 0.371 2.596 1.007-2.331 2.808-5.881 4.609-9.907 4.609zM30.358 30.199l-0.212 0.212-4.503-4.503c0.159-0.106 0.265-0.265 0.424-0.424l4.503 4.503-0.212 0.212z"></path>
<path fill="currentColor" style="fill: var(--color1, currentColor)" d="M6.887 0.636c0 0.371-0.318 0.689-0.689 0.689h-4.768v4.344c0 0.371-0.318 0.689-0.689 0.689s-0.689-0.318-0.689-0.689v-5.722h6.093c0.424 0 0.742 0.318 0.742 0.689zM30.517-0.053v5.722c0 0.371-0.318 0.689-0.689 0.689s-0.689-0.318-0.689-0.689v-4.344h-4.768c-0.371 0-0.689-0.318-0.689-0.689s0.318-0.689 0.689-0.689h6.146z"></path>
<path fill="currentColor" style="fill: var(--color1, currentColor)" d="M6.887 29.616c0 0.371-0.318 0.689-0.689 0.689h-6.146v-5.722c0-0.371 0.318-0.689 0.689-0.689s0.689 0.318 0.689 0.689v4.344h4.715c0.424 0 0.742 0.318 0.742 0.689z"></path>
</symbol>
</defs>
</svg>
