<svg width="18" height="15" fill="none" xmlns="http://www.w3.org/2000/svg"><path fill-rule="evenodd" clip-rule="evenodd" d="M1.047 12.22c-1.4-1.65-1-4.563 1.2-5.149.8 2.8 4.036 3.79 7.062 3.79 3.026 0 5.4-1.17 5.854-3.4 2.138.488 3.29 2.678 1.68 4.748-3.052 3.912-13.026 3.296-15.796.01ZM9.27 9.676c-2.558 0-5.774-1.2-5.774-3.278 0-2.612 4.76-2.696 4.338-5.844 1.948.328 2.894 1.268 2.894 2.754a2.455 2.455 0 0 1-1.302 2.222l.578.79s1.53-.968 2-1.23c1.258.17 1.972.864 1.972 1.964.006 1.604-2.582 2.622-4.706 2.622Z" fill="#FFFFFF"/></svg>