<svg width="20" height="20" fill="none" xmlns="http://www.w3.org/2000/svg"><path fill-rule="evenodd" clip-rule="evenodd" d="m18.869 15.43-.354.094c-.8-.23-.755-4.498.142-5.426l1.244.478c-.706 1.176-1.4 3.816-1.032 4.854Zm-1.6.462-.356.212c-1.4-1.86-1.613-3.988-.773-7.054l1.306.4c-.948 2.314-.956 4.764-.178 6.442Zm-3.334 1.846L2.598 14.692l-.352-1.9s2.338-.972 2.822-2.922c1-3.97 3.078-5.95 6.157-5.178 3.08.772 3.842 3.516 2.842 7.5-.487 1.944 1 3.702 1 3.702l-1.133 1.844ZM10.366 3.65l.33-3.2 3.159.56-1.439 2.922-2.05-.282ZM.452 11.946l-.214-.326c1.82-.988 2.28-2.644 2.546-4l1.258.502c.042 1.298-1.606 3.5-3.59 3.824Zm11.2 6.31c-.894 2.456-4.864 1.094-3.958-1.4 1.022.374 3.062 1.07 3.976 1.4h-.019Z" fill="#FFFFFF"/></svg>