<svg version="1.1" id="Layer_1" xmlns="http://www.w3.org/2000/svg" x="0" y="0" viewBox="0 0 60.6 60.4" style="enable-background:new 0 0 60.6 60.4" xml:space="preserve"><style>.st1,.st2{fill:#943175}.st2{fill-rule:evenodd;clip-rule:evenodd}</style><path style="fill:none" d="M.6.4h60v60H.6z"/><path class="st1" d="M34.2 31.2v.6-.6zm0 0v.8-.8zm2.1.4c0-.6.1-1.4.1-2.3-.1.6-.1 1.4-.1 2.3z"/><path class="st2" d="M34.2 31.2v.8-.2c-.1-.2-.1-.4 0-.6z"/><path class="st1" d="M34.2 31.2v.8-.8zm0 0v.8-.8zm0 0v.8-.8zm0 0v.8-.8zm0 0v.8-.8zm0 0v.8-.8zm0 0v.8-.8zm0 0v.8-.8zm0 0v.8-.8zm2.2-2.1v.2-.5.3zm-2.2 2.1v.8-.8zm0 0v.8-.8zm0 0v.8-.8zm0 0v.8-.8zm0 0v.8-.8zm0 0v.8-.8zm0 0v.8-.8zm0 0v.8-.8zm-5.4-2.6c-.7.3-1.8.5-2.6.4-.4 0-.8-.1-1.1-.1-.3-.1-.6-.2-.8-.3-.2-.2-.3-.5-.2-.7.2-.2.5-.3.7-.2.1 0 .2.1.5.2.3 0 .6.1 1 .1.7 0 1.6-.1 2.1-.3.3-.1.6 0 .7.3.1.1 0 .5-.3.6z"/><path class="st1" d="m60.1 55.6-.1-.2-9.2-9.3c3.9-4.8 6.2-11 6.2-17.6C57 13 44.4.3 28.8.3 13.3.3.7 13 .7 28.5s12.6 28.2 28.2 28.2c6.6 0 12.7-2.3 17.5-6.1l9 9c.4.4.9.6 1.4.6.2 0 .4 0 .5-.1.6-.2 1.2-.5 1.9-1.2s1-1.2 1.2-1.8c0-.7-.2-1.2-.3-1.5zM12.2 44.1c-.3.5-.5 1.1-.7 1.7C7 41.4 4.3 35.2 4.3 28.5 4.3 15 15.3 4 28.8 4s24.5 11 24.5 24.5c0 5.1-1.5 9.8-4.2 13.7-1.2-1.2-2.8-1.7-4.4-2.1-.8-1.9-1-4-1.5-7.3l-.2-1.9c-.5-4.1-1.4-8.7-2.4-12.4-.6-2.2-1.2-4.1-1.8-5.6-.7-1.9-1.4-3.1-2.2-3.9-1.8-1.7-3.8-2.6-5.8-2.8-.9-.1-1.6 0-2 .1-.2 0-.3 0-.5.1h-.7c-.7 0-2.1-.1-3.6.5-2.2.8-4 2.6-5.6 5.3-2 3.5-2.1 7.4-2 10.5 0 1.7.2 3.3.3 5v.4c.1 1.8.3 3.4.3 5 0 3-.2 5.1-.5 6.5-.3 1.1-.6 1.6-.9 1.8-1.6.5-2.6 1.4-3.4 2.7zm7-16.2v-.4l-.3-4.8c0-1.9 0-3.5.3-4.9.2-1.3.6-2.5 1-3.5.1-.3.3-.5.4-.8 1.2-2.2 2.7-3.6 4.2-4.2.3-.1.6-.2.9-.2.2 0 .4-.1.6-.1-.1.3-.3.5-.4.8 0 .1-.1.1-.1.2-.1.2-.2.4-.3.5-.1.2-.2.3-.2.4v.1c-.3 0-.7.2-.9.3-.1.1-.2.1-.3.2-.5.3-1 .7-1.4 1.1-.9.8-1.8 1.8-2.4 2.4l-.1.2v.2c-1.3 6.2-.5 11.5 1.3 14.6.9 1.6 1.8 2.6 2.7 3.2.5.4.9.6 1.3.8v.2c0 .1.1.3.1.4.1.6.2 1.3.1 2-.1.8-.3 1.4-.6 1.6-.2.1-.6.4-1.4.8-.4.1-.8.3-1.3.5-.1 0-.3.1-.5.2s-.4.1-.6.2c-.8.2-1.6.5-2.4.7 0-.1 0-.2.1-.2.4-1.6.6-4 .6-7.1-.2-1.8-.3-3.5-.4-5.4zm7.3-15.2c1.1.2 2.5.5 3.8 1.1 1.8.8 3.2 1.9 3.8 3.6.6 1.8.7 4.5.5 7.4-.1 1-.1 2.1-.2 3.1v.2c-.2.1-.2.2-.4.3 0 .1-.1.1-.1.2l-.1.1c-.6.7-1.7 1.4-3.2 2-1.4.6-3 1-4.4 1.4-.2 0-.5-.2-.9-.5-.5-.4-1.3-1.2-2.1-2.6-1.7-3-2.1-7.8-1.1-12.8.5-.6 1.2-1.3 2-2 .4-.4.8-.7 1.1-.8.2-.1.3-.2.4-.2h.1c.3-.4.5-.4.8-.5zm-4.3 32.8c.1-1.2.4-2.5.7-3.5.1-.2.1-.4.2-.6.2-.1.4-.1.6-.2.3-.1.5-.2.8-.3.8-.3 1.5-.7 2-1.1.9-.7 1.3-2 1.4-3.1.1-.8 0-1.7-.1-2.4 0-.2-.1-.3-.1-.5.2 0 .3-.1.5-.1 1.1-.3 2.3-.7 3.4-1.2.8-.3 1.5-.7 2.2-1.1.2-.1.3-.2.5-.3v2.3c0 .6.1 1.2.1 1.8.1 1.1.3 2.2.5 3.1.1.4.2.9.4 1.2.2.3.4.7.8.9.1.1.2.1.4.2s.4.2.6.2c0 .2.1.4.1.6.2 1 .4 2.4.5 3.7 0 .9 0 1.7-.1 2.3-.1.7-.3 1-.4 1.1 0 0-.1 0-.2.1-.1 0-.3.1-.5.2-.4.1-1 .2-1.7.3-1.4.2-3.1.3-4.9.3-1.8 0-3.5 0-4.9-.2-.7-.1-1.3-.2-1.7-.3-.2-.1-.4-.1-.5-.2-.1 0-.1 0-.1-.1v-.1s-.1-.1-.1-.2c-.1-.2-.1-.4-.1-.8-.4-.3-.4-1.1-.3-2zm14.9-6.8c-.1-.2-.2-.5-.3-.9-.2-.7-.3-1.7-.4-2.8-.1-1-.1-2.1-.1-3.1v-.4c0-.9.1-1.7.1-2.3v-1c.1-1.1.2-2.2.2-3.4.2-2.6.2-5.9-.6-8.2-.7-2-2.5-3.7-5-4.8-1.2-.5-2.4-.9-3.4-1.1.3-.6.6-1.3 1-1.8.1 0 .2 0 .3-.1.3 0 .9-.1 1.5 0 1.6.2 3 .9 4.4 2.2.3.2.9 1 1.6 2.9.6 1.4 1.1 3.2 1.7 5.3.9 3.6 1.8 8.1 2.3 12.1.1.6.2 1.2.2 1.9.3 2.6.6 4.7 1.2 6.6h-.3c-.7-.1-1.3-.1-2-.2-1.1-.3-1.8-.6-2.4-.9zm-8.3 14.4c-5.7 0-11-2-15.2-5.3.2-.8.5-1.7.8-2.4.4-.8.9-1.2 1.7-1.4.9-.3 1.9-.5 2.9-.8h.1c.5-.1.9-.2 1.4-.4-.2.8-.3 1.7-.4 2.6-.1 1.1-.1 2-.1 2.8 0 .5.1.9.2 1.2.2.5.4.9.8 1.2.5.4 1.1.6 1.6.7.5.1 1.2.2 2 .3 1.2.1 2.8.2 4.4.2h.7c1.9 0 3.7-.1 5.1-.3.8-.1 1.5-.2 2-.4.7-.2 1.2-.4 1.6-.7.6-.5.9-1.3 1.1-2.4.1-.8.1-1.7.1-2.8-.1-1-.2-2.1-.4-3.1.6.1 1.3.2 2 .2.5 0 1 .1 1.4.2 2.2.3 3.9.7 4.9 1.9-4.4 5.3-11.1 8.7-18.7 8.7zM57.3 57l-.4.4-8.5-8.5c.3-.2.5-.5.8-.8l8.5 8.5-.4.4z"/><path class="st1" d="M13 1.2c0 .7-.6 1.3-1.3 1.3h-9v8.2c0 .7-.6 1.3-1.3 1.3-.7 0-1.3-.6-1.3-1.3V-.1h11.5c.8 0 1.4.6 1.4 1.3zM57.6-.1v10.8c0 .7-.6 1.3-1.3 1.3-.7 0-1.3-.6-1.3-1.3V2.5h-9c-.7 0-1.3-.6-1.3-1.3 0-.7.6-1.3 1.3-1.3h11.6z"/><path class="st2" d="M13 55.9c0 .7-.6 1.3-1.3 1.3H.1V46.4c0-.7.6-1.3 1.3-1.3.7 0 1.3.6 1.3 1.3v8.2h8.9c.8 0 1.4.6 1.4 1.3z"/></svg>